# xmcd
#
# Track frame offsets: 
#        150
#        25940
#        42990
#        54347
#        73267
#        97850
#        118282
#        128035
#        144592
#        166905
#        182157
#        205437
#        238102
#
# Disc length: 3495 seconds
#
# Revision: 0
# Processed by: cddbd v1.5.2PL0 Copyright (c) Steve Scherf et al.
# Submitted via: ExactAudioCopy v0.95a5
#
DISCID=bd0da50d
DTITLE=S³awek Wierzcholski and The Blues Nightshitt - Official bootleg l
DTITLE=ive
DYEAR=2006
DGENRE=Bluesq
TTITLE0=Blowin' Harp
TTITLE1=Caldonia
TTITLE2=Meisterklasse Boogie
TTITLE3=Just Walk On
TTITLE4='Ramblin' On My Mind
TTITLE5=One Little Problem
TTITLE6=120 MPH
TTITLE7=Great Girl
TTITLE8=Kansas City
TTITLE9=I Feel So Good
TTITLE10=Talk To Me Baby
TTITLE11=Blues Train
TTITLE12=Data
EXTD=
EXTT0=
EXTT1=
EXTT2=
EXTT3=
EXTT4=
EXTT5=
EXTT6=
EXTT7=
EXTT8=
EXTT9=
EXTT10=
EXTT11=
EXTT12=
PLAYORDER=
